<?xml version="1.0" standalone="no"?>
<!DOCTYPE svg PUBLIC "-//W3C//DTD SVG 20010904//EN"
 "http://www.w3.org/TR/2001/REC-SVG-20010904/DTD/svg10.dtd">
<svg version="1.0" xmlns="http://www.w3.org/2000/svg"
 width="500.000000pt" height="500.000000pt" viewBox="0 0 500.000000 500.000000"
 preserveAspectRatio="xMidYMid meet">

<defs>
  <linearGradient id="bgGradient" x1="0%" y1="0%" x2="100%" y2="100%">
    <stop offset="0%" style="stop-color:#0077be;stop-opacity:1" />
    <stop offset="100%" style="stop-color:#00a2e8;stop-opacity:1" />
  </linearGradient>
</defs>

<rect width="100%" height="100%" fill="url(#bgGradient)" />

<g transform="translate(0.000000,500.000000) scale(0.100000,-0.100000)" stroke="none">
<path fill="#ffffff" d="M3575 3715 c-22 -8 -41 -15 -41 -15 -9 -1 -23 -71 -27 -132 -4 -84
-24 -128 -57 -128 -17 0 -20 -7 -20 -40 0 -34 4 -41 25 -46 36 -9 45 -32 52
-132 3 -48 10 -95 15 -105 12 -23 67 -47 108 -47 28 0 30 2 30 40 0 36 -3 40
-25 40 -33 0 -45 27 -45 100 0 64 -22 127 -47 137 -11 4 -10 10 6 27 29 31 41
70 41 139 0 72 5 83 43 92 24 6 27 12 27 46 0 34 -3 39 -22 39 -13 -1 -41 -7
-63 -15z"/>

<path fill="#ffffff" d="M4230 3692 c0 -34 3 -39 33 -47 28 -9 32 -14 32 -50 7 -110 15 -144
38 -169 24 -26 24 -27 5 -46 -25 -25 -40 -82 -40 -151 0 -60 -11 -79 -47 -79
-20 0 -23 -5 -23 -41 l0 -42 52 6 c31 4 60 14 71 26 22 22 36 82 37 159 0 64
11 88 45 96 21 5 25 12 25 45 0 33 -4 40 -25 45 -34 9 -42 28 -48 129 -6 102
-21 132 -74 146 -71 20 -83 16 -83 -27z"/>

<path fill="#a2d5f2" d="M759 3607 c-50 -33 -73 -85 -60 -135 13 -45 37 -69 109 -107 53 -29
59 -40 29 -59 -12 -8 -28 -4 -64 14 -26 14 -51 26 -54 28 -8 3 -59 -81 -59
-97 0 -21 85 -54 151 -59 101 -7 164 36 174 119 8 61 -18 100 -93 138 -32 16
-64 36 -71 45 -21 25 14 32 67 13 25 -10 46 -16 47 -15 6 7 45 88 45 93 0 3
-19 15 -42 25 -60 27 -136 26 -179 -3z m173 -25 c6 -6 6 -17 -1 -30 -10 -18
-15 -19 -47 -10 -45 12 -80 4 -94 -22 -16 -30 4 -57 63 -85 87 -40 113 -74
103 -129 -14 -75 -114 -108 -211 -71 -48 18 -52 24 -33 54 11 18 12 18 55 -1
64 -28 123 -11 123 37 0 27 -16 42 -84 75 -92 46 -108 134 -32 182 25 15 43
18 90 14 32 -2 63 -9 68 -14z"/>

<path fill="#ffffff" stroke="#0077be" stroke-width="2" d="M1030 3570 l0 -60 50 0 50 0 0 -160 0 -160 60 0 60 0 0 160 0 160 45 0 45 0 0 60 0 60 -155 0 -155 0 0 -60z m280 0 c0 -17 -7 -20 -45 -20 l-45 0 0 -160 0 -160 -30 0 -29 0 -3 158 -3 157 -47 3 c-40 3 -48 6 -48 23 0 18 8 19 125 19 118 0 125 -1 125 -20z"/>

<path fill="#ffffff" d="M1420 3463 c0 -150 2 -172 20 -201 31 -50 75 -72 145 -72 81 0 124
23 153 80 20 40 22 58 22 202 l0 158 -60 0 -60 0 0 -141 c0 -77 -5 -149 -10
-160 -12 -22 -59 -26 -78 -7 -8 8 -12 58 -12 160 l0 148 -60 0 -60 0 0 -167z
m90 -8 c0 -122 2 -137 20 -155 28 -28 90 -27 116 1 16 18 19 40 22 155 l4 134
29 0 29 0 0 -136 c0 -158 -11 -193 -67 -219 -55 -26 -146 -17 -181 18 -27 27
-27 29 -30 182 l-3 155 30 0 31 0 0 -135z"/>

<path fill="#0077be" d="M1860 3410 l0 -223 88 5 c107 7 162 28 207 80 69 82 66 215 -7 285
-53 50 -92 64 -194 70 l-94 6 0 -223z m226 155 c60 -35 86 -82 87 -154 0 -72
-26 -120 -87 -156 -36 -21 -56 -25 -119 -25 l-77 0 0 180 0 180 77 0 c63 0 83
-4 119 -25z"/>

<path fill="#0077be" d="M1950 3410 l0 -130 39 0 c80 0 137 87 112 169 -16 54 -62 91 -112 91
l-39 0 0 -130z m85 84 c56 -37 53 -139 -5 -169 -16 -8 -34 -15 -40 -15 -6 0
-10 37 -10 100 0 109 5 117 55 84z"/>

<path fill="#ffffff" d="M2295 3618 c-3 -8 -4 -106 -3 -218 l3 -205 60 0 60 0 0 215 0 215
-58 3 c-41 2 -59 -1 -62 -10z m95 -208 l0 -180 -35 0 -35 0 0 180 0 180 35 0
35 0 0 -180z"/>

<path fill="url(#bgGradient)" d="M2622 3605 c-88 -45 -134 -143 -112 -241 28 -123 106 -181 231 -172
197 14 265 282 102 400 -32 24 -54 31 -105 35 -54 4 -70 1 -116 -22z m169 -19
c70 -30 111 -93 112 -175 1 -146 -138 -234 -270 -170 -108 52 -132 224 -41 305
58 53 132 68 199 40z"/>

<path fill="#ffffff" stroke="#0077be" stroke-width="1" d="M2640 3510 c-48 -51 -50 -139 -6 -195 19 -23 32 -29 79 -33 49 -4 58
-2 81 21 53 54 54 160 1 213 -19 19 -35 24 -76 24 -44 0 -55 -4 -79 -30z m138
-21 c38 -39 38 -119 0 -158 -25 -28 -86 -28 -116 -1 -40 37 -37 115 5 162 23
26 87 24 111 -3z"/>

<path fill="#a2d5f2" d="M3115 3611 c-54 -33 -70 -59 -70 -111 0 -40 5 -54 29 -79 16 -17 48
-39 71 -50 55 -26 70 -44 50 -61 -19 -15 -85 0 -105 25 -7 8 -16 15 -21 15
-13 0 -69 -93 -62 -103 3 -5 29 -20 57 -33 130 -61 269 -5 269 108 0 61 -25
94 -105 134 -68 34 -81 50 -53 60 13 5 36 0 86 -21 23 -9 78 83 58 97 -60 41
-154 50 -204 19z m144 -22 c34 -12 37 -18 19 -42 -11 -14 -19 -14 -55 -5 -35
10 -45 9 -67 -5 -14 -10 -26 -26 -26 -37 0 -19 44 -60 65 -60 22 0 96 -60 106
-87 14 -38 -6 -90 -45 -114 -41 -25 -118 -25 -174 1 -42 19 -43 20 -27 44 l16
24 45 -20 c56 -24 101 -17 115 19 13 34 1 50 -66 87 -80 44 -102 74 -89 123
17 68 99 101 183 72z"/>

<path fill="#ffffff" d="M3902 3588 c-9 -9 -12 -79 -12 -252 0 -138 4 -235 9 -227 6 9 24 12
60 10 l51 -4 0 231 c0 165 -3 233 -12 242 -7 7 -28 12 -48 12 -20 0 -41 -5
-48 -12z"/>

<path fill="none" stroke="#ffffff" stroke-width="10" d="M500 2215 l0 -765 710 0 710 0 0 70 0 70 -635 0 -635 0 0 625 0 625 1850 0 1850 0 0 -625 0 -625 -635 0 -635 0 0 -70 0 -70 710 0 710 0 0 765 0 765 -2000 0 -2000 0 0 -765z"/>

<path fill="url(#bgGradient)" stroke="#ffffff" stroke-width="3" d="M1919 2707 c-140 -40 -237 -152 -258 -298 -22 -158 54 -311 187 -376
51 -25 68 -28 157 -28 89 0 106 3 157 28 121 60 191 178 192 328 0 77 -3 92
-32 152 -40 80 -121 158 -189 181 -66 23 -159 29 -214 13z m144 -151 c21 -8
48 -22 59 -33 65 -59 83 -189 37 -279 -68 -135 -269 -120 -318 25 -28 84 -4
208 49 256 21 19 86 44 115 44 11 0 37 -6 58 -13z"/>

<path fill="#ffffff" d="M915 2698 c-2 -7 -16 -141 -30 -298 -13 -157 -27 -309 -31 -337 l-5
-53 80 0 c77 0 81 1 81 23 0 12 7 99 15 192 8 94 15 177 15 185 1 13 66 -157
126 -330 18 -52 21 -55 62 -64 26 -5 46 -5 51 0 5 5 39 99 77 208 l69 200 6
-55 c4 -29 12 -123 20 -206 l13 -153 78 0 c43 0 78 4 78 9 0 36 -62 676 -66
683 -5 7 -164 12 -164 5 0 -6 -150 -391 -154 -394 -2 -2 -15 27 -29 64 -13 37
-48 128 -77 201 l-53 132 -79 0 c-54 0 -80 -4 -83 -12z"/>

<path fill="#ffffff" d="M2430 2361 l0 -351 153 0 c166 0 215 9 266 47 103 78 88 255 -26 305
l-44 19 30 28 c54 51 63 149 20 220 -34 56 -91 73 -256 79 l-143 5 0 -352z
m250 199 c25 -25 27 -81 3 -102 -10 -8 -35 -18 -55 -21 l-38 -6 0 75 0 74 35
0 c22 0 43 -8 55 -20z m48 -296 c23 -27 28 -63 12 -94 -12 -22 -61 -40 -111
-40 l-39 0 0 86 0 87 58 -7 c44 -5 62 -12 80 -32z"/>

<path fill="#a2d5f2" d="M2990 2360 l0 -350 80 0 80 0 -2 348 -3 347 -77 3 -78 3 0 -351z"/>

<path fill="#ffffff" stroke="#0077be" stroke-width="2" d="M3250 2360 l0 -350 200 0 201 0 -3 68 -3 67 -117 3 -118 3 -2 277 -3 277 -77 3 -78 3 0 -351z"/>

<path fill="#ffffff" d="M3730 2360 l0 -350 201 0 202 0 -7 38 c-3 20 -6 52 -6 70 l0 32 -115
0 -115 0 0 70 0 70 110 0 110 0 0 70 0 70 -110 0 -110 0 0 70 0 70 121 0 122
0 -7 38 c-3 20 -6 52 -6 70 l0 32 -195 0 -195 0 0 -350z"/>

<path fill="#a2d5f2" d="M2268 1762 c-34 -2 -48 -7 -48 -18 0 -8 10 -14 25 -14 23 0 25 -4 25
-45 l0 -45 -40 0 c-49 0 -91 -20 -113 -54 -38 -57 -30 -154 16 -196 26 -25 88
-26 122 -4 23 15 25 15 25 0 0 -12 10 -16 40 -16 29 0 40 4 40 15 0 8 -7 15
-15 15 -13 0 -15 27 -15 179 0 99 -3 181 -7 183 -5 2 -29 2 -55 0z m-14 -148
c13 -5 16 -24 16 -100 0 -91 -1 -95 -25 -106 -77 -35 -120 128 -50 190 28 24
35 25 59 16z"/>

<path fill="#ffffff" d="M2448 1617 c-65 -53 -63 -184 3 -231 43 -29 155 -15 167 22 3 9 -6
11 -37 6 -55 -9 -85 1 -99 31 -23 51 -18 55 63 55 85 0 92 6 81 66 -11 54 -37
74 -98 74 -40 0 -60 -6 -80 -23z m93 -7 c13 -8 19 -21 19 -45 0 -35 0 -35 -45
-35 -41 0 -45 2 -45 25 0 14 9 34 20 45 23 23 25 23 51 10z"/>

<path fill="#a2d5f2" d="M2650 1625 c0 -8 4 -15 8 -15 5 0 30 -54 57 -120 48 -118 50 -121
78 -118 28 3 32 10 72 118 23 63 47 116 54 118 6 2 11 10 11 18 0 10 -14 14
-50 14 -38 0 -50 -4 -50 -15 0 -8 7 -15 15 -15 8 0 15 -1 15 -2 0 -2 -13 -43
-29 -93 -17 -52 -31 -84 -35 -75 -8 21 -56 163 -56 167 0 2 7 3 15 3 8 0 15 7
15 15 0 12 -13 15 -60 15 -47 0 -60 -3 -60 -15z"/>
</g>
</svg>